# xmcd
#
# Track frame offsets:
#	150
#	10087
#	26813
#	48730
#	76001
#	94968
#	113694
#	133788
#	150441
#	206300
#	230432
#	244127
#	266592
#	313136
#	339631
#
# Disc length: 4797 seconds
#
# Revision: 1
# Processed by: cddbd v1.5.1PL2 Copyright (c) Steve Scherf et al.
# Submitted via: EasyCDDAExtractor 8.0.2.1
#
DISCID=c412bb0f
DTITLE=Dio - Odeon Theatre Birmingham 18-09-84
DYEAR=1984
DGENRE=Hard Rock
TTITLE0=Intro
TTITLE1=Stand Up And Shout
TTITLE2=One Night In The City
TTITLE3=Don't Talk To Strangers
TTITLE4=Mystery
TTITLE5=Egypt (The Chains Are On)
TTITLE6=Holy Diver
TTITLE7=Drum Solo
TTITLE8=Heaven and Hell Incl Guitar Solo
TTITLE9=The Last In Line
TTITLE10=Heaven and Hell Reprise
TTITLE11=Rainbow In The Dark
TTITLE12=Man On The Silver Mountain - Long Live Rock and Roll
TTITLE13=We Rock
TTITLE14=The Mob Rules
EXTD=
EXTT0=
EXTT1=
EXTT2=
EXTT3=
EXTT4=
EXTT5=
EXTT6=
EXTT7=
EXTT8=
EXTT9=
EXTT10=
EXTT11=
EXTT12=
EXTT13=
EXTT14=
PLAYORDER=
